{"glyphs":{"\u0000":{"ha":0,"x_min":0,"x_max":0,"o":""},"\n":{"ha":0,"x_min":0,"x_max":0,"o":""},"\r":{"ha":0,"x_min":0,"x_max":0,"o":""}," ":{"ha":373,"x_min":0,"x_max":0,"o":""},"A":{"ha":933,"x_min":25,"x_max":908,"o":"m 701 569 l 762 398 l 341 398 l 404 569 l 701 569 m 25 -1 l 163 379 l 334 379 l 196 -1 l 25 -1 m 467 742 l 409 585 l 238 585 l 379 971 l 554 971 l 694 585 l 524 585 l 467 742 m 770 379 l 908 -1 l 736 -1 l 598 379 l 770 379 z "},"B":{"ha":618,"x_min":25,"x_max":592,"o":"m 421 399 l 25 399 l 25 570 l 421 570 l 421 399 m 446 972 l 592 826 l 592 586 l 421 586 l 421 801 l 196 801 l 196 586 l 25 586 l 25 972 l 196 972 l 446 972 m 421 171 l 421 380 l 592 380 l 592 146 l 446 0 l 25 0 l 25 383 l 196 383 l 196 171 l 421 171 z "},"C":{"ha":618,"x_min":25,"x_max":592,"o":"m 592 972 l 592 731 l 421 731 l 421 801 l 196 801 l 196 586 l 25 586 l 25 826 l 172 972 l 421 972 l 592 972 m 592 284 l 592 0 l 172 0 l 25 146 l 25 380 l 196 380 l 196 171 l 421 171 l 421 284 l 592 284 z "},"D":{"ha":618,"x_min":25,"x_max":592,"o":"m 196 586 l 25 586 l 25 972 l 196 972 l 196 586 m 592 398 l 421 398 l 421 569 l 592 569 l 592 398 m 446 972 l 592 826 l 592 586 l 421 586 l 421 972 l 446 972 m 421 171 l 421 380 l 592 380 l 592 146 l 446 0 l 25 0 l 25 383 l 196 383 l 196 171 l 421 171 z "},"E":{"ha":618,"x_min":25,"x_max":592,"o":"m 592 972 l 592 731 l 421 731 l 421 801 l 196 801 l 196 586 l 25 586 l 25 826 l 172 972 l 421 972 l 592 972 m 592 284 l 592 0 l 172 0 l 25 146 l 25 380 l 196 380 l 196 171 l 421 171 l 421 284 l 592 284 m 421 399 l 25 399 l 25 570 l 421 570 l 421 399 z "},"F":{"ha":618,"x_min":25,"x_max":592,"o":"m 592 972 l 592 731 l 421 731 l 421 801 l 196 801 l 196 586 l 25 586 l 25 826 l 172 972 l 421 972 l 592 972 m 421 399 l 25 399 l 25 570 l 421 570 l 421 399 m 25 146 l 25 380 l 196 380 l 196 0 l 172 0 l 25 146 z "},"G":{"ha":618,"x_min":25,"x_max":592,"o":"m 592 570 l 592 0 l 172 0 l 25 146 l 25 380 l 196 380 l 196 171 l 421 171 l 421 399 l 196 399 l 196 570 l 592 570 m 196 801 l 196 586 l 25 586 l 25 826 l 172 972 l 421 972 l 592 972 l 592 731 l 421 731 l 421 801 l 196 801 z "},"H":{"ha":618,"x_min":25,"x_max":592,"o":"m 592 399 l 196 399 l 196 570 l 592 570 l 592 399 m 196 972 l 196 586 l 25 586 l 25 826 l 172 972 l 196 972 m 25 146 l 25 380 l 196 380 l 196 0 l 172 0 l 25 146 m 446 972 l 592 826 l 592 586 l 421 586 l 421 972 l 446 972 m 421 0 l 421 380 l 592 380 l 592 146 l 446 0 l 421 0 z "},"I":{"ha":223,"x_min":25,"x_max":196,"o":"m 196 399 l 25 399 l 25 570 l 196 570 l 196 399 m 196 972 l 196 586 l 25 586 l 25 826 l 172 972 l 196 972 m 25 146 l 25 380 l 196 380 l 196 0 l 172 0 l 25 146 z "},"J":{"ha":547,"x_min":25,"x_max":522,"o":"m 522 398 l 351 398 l 351 569 l 522 569 l 522 398 m 376 972 l 522 826 l 522 586 l 351 586 l 351 972 l 376 972 m 351 171 l 351 380 l 522 380 l 522 146 l 376 0 l 25 0 l 25 171 l 351 171 z "},"K":{"ha":694,"x_min":25,"x_max":667,"o":"m 25 826 l 172 972 l 196 972 l 196 586 l 25 586 l 25 826 m 25 146 l 25 380 l 196 380 l 196 0 l 172 0 l 25 146 m 368 484 l 420 398 l 250 398 l 197 484 l 368 484 m 259 382 l 431 382 l 667 -1 l 496 -1 l 259 382 m 418 569 l 368 488 l 197 488 l 247 569 l 418 569 m 667 971 l 429 588 l 258 588 l 496 971 l 667 971 z "},"L":{"ha":547,"x_min":25,"x_max":522,"o":"m 196 171 l 522 171 l 522 0 l 172 0 l 25 146 l 25 380 l 196 380 l 196 171 m 196 398 l 25 398 l 25 569 l 196 569 l 196 398 m 196 972 l 196 586 l 25 586 l 25 826 l 172 972 l 196 972 z "},"M":{"ha":780,"x_min":25,"x_max":753,"o":"m 753 398 l 583 398 l 583 569 l 753 569 l 753 398 m 25 146 l 25 380 l 196 380 l 196 0 l 172 0 l 25 146 m 607 972 l 753 826 l 753 586 l 583 586 l 583 801 l 475 801 l 475 398 l 304 398 l 304 801 l 196 801 l 196 586 l 25 586 l 25 826 l 172 972 l 304 972 l 475 972 l 607 972 m 583 0 l 583 380 l 753 380 l 753 146 l 607 0 l 583 0 z "},"N":{"ha":676,"x_min":25,"x_max":649,"o":"m 649 398 l 478 398 l 478 569 l 649 569 l 649 398 m 25 146 l 25 380 l 196 380 l 196 0 l 172 0 l 25 146 m 503 972 l 649 826 l 649 586 l 478 586 l 478 801 l 196 801 l 196 586 l 25 586 l 25 826 l 172 972 l 503 972 m 478 0 l 478 380 l 649 380 l 649 146 l 503 0 l 478 0 z "},"O":{"ha":675,"x_min":25,"x_max":649,"o":"m 649 398 l 478 398 l 478 569 l 649 569 l 649 398 m 503 972 l 649 826 l 649 586 l 478 586 l 478 801 l 196 801 l 196 586 l 25 586 l 25 826 l 172 972 l 503 972 m 478 171 l 478 380 l 649 380 l 649 146 l 503 0 l 488 0 l 183 0 l 172 0 l 25 146 l 25 380 l 196 380 l 196 171 l 478 171 z "},"P":{"ha":618,"x_min":25,"x_max":592,"o":"m 196 0 l 25 0 l 25 383 l 196 383 l 196 0 m 592 399 l 196 399 l 196 570 l 592 570 l 592 399 m 446 972 l 592 826 l 592 586 l 421 586 l 421 801 l 196 801 l 196 586 l 25 586 l 25 972 l 196 972 l 446 972 z "},"Q":{"ha":675,"x_min":25,"x_max":649,"o":"m 421 569 l 649 569 l 649 398 l 421 398 l 421 -165 l 250 -165 l 250 569 l 421 569 m 25 826 l 172 972 l 196 972 l 196 586 l 25 586 l 25 826 m 25 146 l 25 380 l 196 380 l 196 0 l 172 0 l 25 146 m 478 586 l 478 801 l 285 801 l 285 972 l 503 972 l 649 826 l 649 586 l 478 586 m 478 0 l 478 380 l 649 380 l 649 146 l 503 0 l 478 0 z "},"R":{"ha":630,"x_min":25,"x_max":604,"o":"m 196 801 l 196 586 l 25 586 l 25 972 l 196 972 l 446 972 l 592 826 l 592 586 l 421 586 l 421 801 l 196 801 m 196 0 l 25 0 l 25 383 l 196 383 l 196 0 m 592 399 l 196 399 l 196 570 l 592 570 l 592 399 m 367 383 l 604 0 l 433 0 l 196 383 l 367 383 z "},"S":{"ha":618,"x_min":25,"x_max":592,"o":"m 592 570 l 592 0 l 172 0 l 25 146 l 25 171 l 421 171 l 421 399 l 196 399 l 196 570 l 592 570 m 196 801 l 196 586 l 25 586 l 25 826 l 172 972 l 421 972 l 592 972 l 592 731 l 421 731 l 421 801 l 196 801 z "},"T":{"ha":848,"x_min":25,"x_max":823,"o":"m 823 972 l 823 801 l 522 801 l 522 800 l 509 800 l 509 592 l 338 592 l 338 800 l 25 800 l 25 825 l 172 971 l 471 971 l 472 972 l 823 972 m 509 403 l 338 403 l 338 574 l 509 574 l 509 403 m 338 146 l 338 387 l 509 387 l 509 0 l 485 0 l 338 146 z "},"U":{"ha":675,"x_min":25,"x_max":649,"o":"m 649 403 l 478 403 l 478 574 l 649 574 l 649 403 m 196 972 l 196 592 l 25 592 l 25 826 l 172 972 l 196 972 m 478 171 l 478 387 l 649 387 l 649 146 l 503 0 l 25 0 l 25 387 l 196 387 l 196 171 l 478 171 m 503 972 l 649 826 l 649 592 l 478 592 l 478 972 l 503 972 z "},"V":{"ha":675,"x_min":25,"x_max":649,"o":"m 649 403 l 478 403 l 478 574 l 649 574 l 649 403 m 196 972 l 196 592 l 25 592 l 25 826 l 172 972 l 196 972 m 478 171 l 478 387 l 649 387 l 649 146 l 503 0 l 172 0 l 25 146 l 25 387 l 196 387 l 196 171 l 478 171 m 503 972 l 649 826 l 649 592 l 478 592 l 478 972 l 503 972 z "},"W":{"ha":779,"x_min":25,"x_max":753,"o":"m 753 403 l 583 403 l 583 574 l 753 574 l 753 403 m 196 972 l 196 592 l 25 592 l 25 826 l 172 972 l 196 972 m 583 171 l 583 387 l 753 387 l 753 146 l 607 0 l 475 0 l 304 0 l 172 0 l 25 146 l 25 387 l 196 387 l 196 171 l 304 171 l 304 574 l 475 574 l 475 171 l 583 171 m 607 972 l 753 826 l 753 592 l 583 592 l 583 972 l 607 972 z "},"X":{"ha":740,"x_min":25,"x_max":714,"o":"m 503 399 l 237 399 l 284 488 l 240 570 l 499 570 l 455 488 l 503 399 m 507 586 l 232 586 l 26 972 l 197 972 l 370 648 l 542 972 l 713 972 l 507 586 m 513 380 l 714 0 l 543 0 l 370 327 l 196 0 l 25 0 l 227 380 l 513 380 z "},"Y":{"ha":739,"x_min":25,"x_max":713,"o":"m 227 380 l 398 380 l 370 327 l 196 0 l 25 0 l 227 380 m 240 570 l 499 570 l 455 488 l 408 399 l 237 399 l 284 488 l 240 570 m 542 972 l 713 972 l 507 586 l 232 586 l 26 972 l 198 972 l 370 648 l 542 972 z "},"Z":{"ha":740,"x_min":25,"x_max":714,"o":"m 568 171 l 714 24 l 714 0 l 71 0 l 71 85 l 116 171 l 227 380 l 398 380 l 370 327 l 287 171 l 568 171 m 284 488 l 328 570 l 499 570 l 455 488 l 408 399 l 237 399 l 284 488 m 370 648 l 451 801 l 25 801 l 25 826 l 172 972 l 669 972 l 669 890 l 622 801 l 507 586 l 336 586 l 370 648 z "},"a":{"ha":933,"x_min":25,"x_max":908,"o":"m 701 569 l 762 398 l 341 398 l 404 569 l 701 569 m 25 -1 l 163 379 l 334 379 l 196 -1 l 25 -1 m 467 742 l 409 585 l 238 585 l 379 971 l 554 971 l 694 585 l 524 585 l 467 742 m 770 379 l 908 -1 l 736 -1 l 598 379 l 770 379 z "},"b":{"ha":618,"x_min":25,"x_max":592,"o":"m 421 399 l 25 399 l 25 570 l 421 570 l 421 399 m 446 972 l 592 826 l 592 586 l 421 586 l 421 801 l 196 801 l 196 586 l 25 586 l 25 972 l 196 972 l 446 972 m 421 171 l 421 380 l 592 380 l 592 146 l 446 0 l 25 0 l 25 383 l 196 383 l 196 171 l 421 171 z "},"c":{"ha":618,"x_min":25,"x_max":592,"o":"m 592 972 l 592 731 l 421 731 l 421 801 l 196 801 l 196 586 l 25 586 l 25 826 l 172 972 l 421 972 l 592 972 m 592 284 l 592 0 l 172 0 l 25 146 l 25 380 l 196 380 l 196 171 l 421 171 l 421 284 l 592 284 z "},"d":{"ha":618,"x_min":25,"x_max":592,"o":"m 196 586 l 25 586 l 25 972 l 196 972 l 196 586 m 592 398 l 421 398 l 421 569 l 592 569 l 592 398 m 446 972 l 592 826 l 592 586 l 421 586 l 421 972 l 446 972 m 421 171 l 421 380 l 592 380 l 592 146 l 446 0 l 25 0 l 25 383 l 196 383 l 196 171 l 421 171 z "},"e":{"ha":618,"x_min":25,"x_max":592,"o":"m 592 972 l 592 731 l 421 731 l 421 801 l 196 801 l 196 586 l 25 586 l 25 826 l 172 972 l 421 972 l 592 972 m 592 284 l 592 0 l 172 0 l 25 146 l 25 380 l 196 380 l 196 171 l 421 171 l 421 284 l 592 284 m 421 399 l 25 399 l 25 570 l 421 570 l 421 399 z "},"f":{"ha":618,"x_min":25,"x_max":592,"o":"m 592 972 l 592 731 l 421 731 l 421 801 l 196 801 l 196 586 l 25 586 l 25 826 l 172 972 l 421 972 l 592 972 m 421 399 l 25 399 l 25 570 l 421 570 l 421 399 m 25 146 l 25 380 l 196 380 l 196 0 l 172 0 l 25 146 z "},"g":{"ha":618,"x_min":25,"x_max":592,"o":"m 592 570 l 592 0 l 172 0 l 25 146 l 25 380 l 196 380 l 196 171 l 421 171 l 421 399 l 196 399 l 196 570 l 592 570 m 196 801 l 196 586 l 25 586 l 25 826 l 172 972 l 421 972 l 592 972 l 592 731 l 421 731 l 421 801 l 196 801 z "},"h":{"ha":618,"x_min":25,"x_max":592,"o":"m 592 399 l 196 399 l 196 570 l 592 570 l 592 399 m 196 972 l 196 586 l 25 586 l 25 826 l 172 972 l 196 972 m 25 146 l 25 380 l 196 380 l 196 0 l 172 0 l 25 146 m 446 972 l 592 826 l 592 586 l 421 586 l 421 972 l 446 972 m 421 0 l 421 380 l 592 380 l 592 146 l 446 0 l 421 0 z "},"i":{"ha":223,"x_min":25,"x_max":196,"o":"m 196 399 l 25 399 l 25 570 l 196 570 l 196 399 m 196 972 l 196 586 l 25 586 l 25 826 l 172 972 l 196 972 m 25 146 l 25 380 l 196 380 l 196 0 l 172 0 l 25 146 z "},"j":{"ha":547,"x_min":25,"x_max":522,"o":"m 522 398 l 351 398 l 351 569 l 522 569 l 522 398 m 376 972 l 522 826 l 522 586 l 351 586 l 351 972 l 376 972 m 351 171 l 351 380 l 522 380 l 522 146 l 376 0 l 25 0 l 25 171 l 351 171 z "},"k":{"ha":694,"x_min":25,"x_max":667,"o":"m 25 826 l 172 972 l 196 972 l 196 586 l 25 586 l 25 826 m 25 146 l 25 380 l 196 380 l 196 0 l 172 0 l 25 146 m 368 484 l 420 398 l 250 398 l 197 484 l 368 484 m 259 382 l 431 382 l 667 -1 l 496 -1 l 259 382 m 418 569 l 368 488 l 197 488 l 247 569 l 418 569 m 667 971 l 429 588 l 258 588 l 496 971 l 667 971 z "},"l":{"ha":547,"x_min":25,"x_max":522,"o":"m 196 171 l 522 171 l 522 0 l 172 0 l 25 146 l 25 380 l 196 380 l 196 171 m 196 398 l 25 398 l 25 569 l 196 569 l 196 398 m 196 972 l 196 586 l 25 586 l 25 826 l 172 972 l 196 972 z "},"m":{"ha":780,"x_min":25,"x_max":753,"o":"m 753 398 l 583 398 l 583 569 l 753 569 l 753 398 m 25 146 l 25 380 l 196 380 l 196 0 l 172 0 l 25 146 m 607 972 l 753 826 l 753 586 l 583 586 l 583 801 l 475 801 l 475 398 l 304 398 l 304 801 l 196 801 l 196 586 l 25 586 l 25 826 l 172 972 l 304 972 l 475 972 l 607 972 m 583 0 l 583 380 l 753 380 l 753 146 l 607 0 l 583 0 z "},"n":{"ha":676,"x_min":25,"x_max":649,"o":"m 649 398 l 478 398 l 478 569 l 649 569 l 649 398 m 25 146 l 25 380 l 196 380 l 196 0 l 172 0 l 25 146 m 503 972 l 649 826 l 649 586 l 478 586 l 478 801 l 196 801 l 196 586 l 25 586 l 25 826 l 172 972 l 503 972 m 478 0 l 478 380 l 649 380 l 649 146 l 503 0 l 478 0 z "},"o":{"ha":675,"x_min":25,"x_max":649,"o":"m 649 398 l 478 398 l 478 569 l 649 569 l 649 398 m 503 972 l 649 826 l 649 586 l 478 586 l 478 801 l 196 801 l 196 586 l 25 586 l 25 826 l 172 972 l 503 972 m 478 171 l 478 380 l 649 380 l 649 146 l 503 0 l 488 0 l 183 0 l 172 0 l 25 146 l 25 380 l 196 380 l 196 171 l 478 171 z "},"p":{"ha":618,"x_min":25,"x_max":592,"o":"m 196 0 l 25 0 l 25 383 l 196 383 l 196 0 m 592 399 l 196 399 l 196 570 l 592 570 l 592 399 m 446 972 l 592 826 l 592 586 l 421 586 l 421 801 l 196 801 l 196 586 l 25 586 l 25 972 l 196 972 l 446 972 z "},"q":{"ha":675,"x_min":25,"x_max":649,"o":"m 421 569 l 649 569 l 649 398 l 421 398 l 421 -165 l 250 -165 l 250 569 l 421 569 m 25 826 l 172 972 l 196 972 l 196 586 l 25 586 l 25 826 m 25 146 l 25 380 l 196 380 l 196 0 l 172 0 l 25 146 m 478 586 l 478 801 l 285 801 l 285 972 l 503 972 l 649 826 l 649 586 l 478 586 m 478 0 l 478 380 l 649 380 l 649 146 l 503 0 l 478 0 z "},"r":{"ha":630,"x_min":25,"x_max":604,"o":"m 196 801 l 196 586 l 25 586 l 25 972 l 196 972 l 446 972 l 592 826 l 592 586 l 421 586 l 421 801 l 196 801 m 196 0 l 25 0 l 25 383 l 196 383 l 196 0 m 592 399 l 196 399 l 196 570 l 592 570 l 592 399 m 367 383 l 604 0 l 433 0 l 196 383 l 367 383 z "},"s":{"ha":618,"x_min":25,"x_max":592,"o":"m 592 570 l 592 0 l 172 0 l 25 146 l 25 171 l 421 171 l 421 399 l 196 399 l 196 570 l 592 570 m 196 801 l 196 586 l 25 586 l 25 826 l 172 972 l 421 972 l 592 972 l 592 731 l 421 731 l 421 801 l 196 801 z "},"t":{"ha":848,"x_min":25,"x_max":823,"o":"m 823 972 l 823 801 l 522 801 l 522 800 l 509 800 l 509 592 l 338 592 l 338 800 l 25 800 l 25 825 l 172 971 l 471 971 l 472 972 l 823 972 m 509 403 l 338 403 l 338 574 l 509 574 l 509 403 m 338 146 l 338 387 l 509 387 l 509 0 l 485 0 l 338 146 z "},"u":{"ha":675,"x_min":25,"x_max":649,"o":"m 649 403 l 478 403 l 478 574 l 649 574 l 649 403 m 196 972 l 196 592 l 25 592 l 25 826 l 172 972 l 196 972 m 478 171 l 478 387 l 649 387 l 649 146 l 503 0 l 25 0 l 25 387 l 196 387 l 196 171 l 478 171 m 503 972 l 649 826 l 649 592 l 478 592 l 478 972 l 503 972 z "},"v":{"ha":675,"x_min":25,"x_max":649,"o":"m 649 403 l 478 403 l 478 574 l 649 574 l 649 403 m 196 972 l 196 592 l 25 592 l 25 826 l 172 972 l 196 972 m 478 171 l 478 387 l 649 387 l 649 146 l 503 0 l 172 0 l 25 146 l 25 387 l 196 387 l 196 171 l 478 171 m 503 972 l 649 826 l 649 592 l 478 592 l 478 972 l 503 972 z "},"w":{"ha":779,"x_min":25,"x_max":753,"o":"m 753 403 l 583 403 l 583 574 l 753 574 l 753 403 m 196 972 l 196 592 l 25 592 l 25 826 l 172 972 l 196 972 m 583 171 l 583 387 l 753 387 l 753 146 l 607 0 l 475 0 l 304 0 l 172 0 l 25 146 l 25 387 l 196 387 l 196 171 l 304 171 l 304 574 l 475 574 l 475 171 l 583 171 m 607 972 l 753 826 l 753 592 l 583 592 l 583 972 l 607 972 z "},"x":{"ha":740,"x_min":25,"x_max":714,"o":"m 503 399 l 237 399 l 284 488 l 240 570 l 499 570 l 455 488 l 503 399 m 507 586 l 232 586 l 26 972 l 197 972 l 370 648 l 542 972 l 713 972 l 507 586 m 513 380 l 714 0 l 543 0 l 370 327 l 196 0 l 25 0 l 227 380 l 513 380 z "},"y":{"ha":739,"x_min":25,"x_max":713,"o":"m 227 380 l 398 380 l 370 327 l 196 0 l 25 0 l 227 380 m 240 570 l 499 570 l 455 488 l 408 399 l 237 399 l 284 488 l 240 570 m 542 972 l 713 972 l 507 586 l 232 586 l 26 972 l 198 972 l 370 648 l 542 972 z "},"z":{"ha":740,"x_min":25,"x_max":714,"o":"m 568 171 l 714 24 l 714 0 l 71 0 l 71 85 l 116 171 l 227 380 l 398 380 l 370 327 l 287 171 l 568 171 m 284 488 l 328 570 l 499 570 l 455 488 l 408 399 l 237 399 l 284 488 m 370 648 l 451 801 l 25 801 l 25 826 l 172 972 l 669 972 l 669 890 l 622 801 l 507 586 l 336 586 l 370 648 z "}," ":{"ha":373,"x_min":0,"x_max":0,"o":""},"­":{"ha":0,"x_min":0,"x_max":0,"o":""}}}
